<svg width="280" height="100" viewBox="0 0 280 100" fill="none" xmlns="http://www.w3.org/2000/svg">
  <!-- Tooth icon with smile -->
  <g>
    <!-- Tooth outline in blue -->
    <path d="M35 20 C35 20, 25 20, 20 28 C15 35, 15 45, 15 50 C15 55, 15 65, 18 70 C20 75, 22 78, 25 78 L30 78 C30 78, 30 82, 32 85 C34 88, 37 90, 40 90 C43 90, 46 88, 48 85 C50 82, 50 78, 50 78 L55 78 C58 78, 60 75, 62 70 C65 65, 65 55, 65 50 C65 45, 65 35, 60 28 C55 20, 45 20, 45 20 C45 20, 42 18, 40 18 C38 18, 35 20, 35 20 Z"
          stroke="#0066CC"
          stroke-width="4"
          fill="white"/>

    <!-- Orange smile -->
    <path d="M28 48 Q40 58, 52 48"
          stroke="#FF8542"
          stroke-width="3.5"
          fill="none"
          stroke-linecap="round"/>
  </g>

  <!-- "Smile" text in blue -->
  <text x="90" y="48" font-family="'Brush Script MT', 'Lucida Handwriting', 'Segoe Script', cursive" font-size="36" fill="#0066CC" font-style="italic">Smile</text>

  <!-- "Right" text in orange -->
  <text x="95" y="82" font-family="'Brush Script MT', 'Lucida Handwriting', 'Segoe Script', cursive" font-size="36" fill="#FF8542" font-style="italic">Right</text>
</svg>
